<?xml version="1.0" encoding="UTF-8"?>
<svg id="_レイヤー_2" data-name="レイヤー 2" xmlns="http://www.w3.org/2000/svg" viewBox="0 0 79.64 38.83">
  <defs>
    <style>
      .cls-1 {
        fill: #a98c58;
      }

      .cls-2 {
        fill: none;
        stroke: #a98c58;
        stroke-miterlimit: 10;
        stroke-width: .5px;
      }
    </style>
  </defs>
  <g id="logo">
    <g>
      <g>
        <path class="cls-1" d="M37.29,35.12h.64v-4.12h-.64v-.25h1.58v.25h-.65v2.43l2.37-2.43h-.7v-.25h1.59v.25h-.55l-1.67,1.72,1.67,2.4h.6v.25h-.78l-1.69-2.46-.83.85v1.37h.65v.25h-1.58v-.25Z"/>
        <path class="cls-1" d="M43.8,35.12h.64v-4.12h-.64v-.25h3.24v1.02h-.28v-.78h-2.04v1.88h1.63v.25h-1.63v1.98h2.04v-.78h.28v1.02h-3.24v-.25Z"/>
        <path class="cls-1" d="M49.56,35.12h.67v-4.12h-.67v-.25h1.64v.25h-.68v4.12h.68v.25h-1.64v-.25Z"/>
        <path class="cls-1" d="M53.52,35.12h.5l1.54-4.12h-.58v-.25h1.75v.25h-.58l1.54,4.12h.51v.25h-1.42v-.25h.6l-.54-1.46h-1.98l-.54,1.46h.62v.25h-1.42v-.25ZM56.76,33.41l-.9-2.43-.9,2.43h1.8Z"/>
        <path class="cls-1" d="M60.53,35.12h.67v-4.12h-.67v-.25h1.64v.25h-.68v4.12h.68v.25h-1.64v-.25Z"/>
        <path class="cls-1" d="M64.6,35.12h.64v-4.12h-.64v-.25h1.58v.25h-.65v2.43l2.37-2.43h-.7v-.25h1.59v.25h-.55l-1.67,1.72,1.67,2.4h.6v.25h-.78l-1.69-2.46-.83.85v1.37h.65v.25h-1.58v-.25Z"/>
        <path class="cls-1" d="M71,35.12h.5l1.54-4.12h-.58v-.25h1.75v.25h-.58l1.54,4.12h.51v.25h-1.42v-.25h.6l-.54-1.46h-1.98l-.54,1.46h.62v.25h-1.42v-.25ZM74.23,33.41l-.9-2.43-.9,2.43h1.8Z"/>
        <path class="cls-1" d="M78,35.12h.67v-4.12h-.67v-.25h1.64v.25h-.68v4.12h.68v.25h-1.64v-.25Z"/>
      </g>
      <circle class="cls-2" cx="19.42" cy="19.42" r="19.17"/>
      <circle class="cls-2" cx="20.11" cy="19.02" r="17.57"/>
      <circle class="cls-2" cx="20.8" cy="18.62" r="15.97"/>
      <circle class="cls-2" cx="21.49" cy="18.22" r="14.37"/>
      <circle class="cls-2" cx="22.18" cy="17.82" r="12.78"/>
      <circle class="cls-2" cx="22.88" cy="17.42" r="11.18"/>
      <circle class="cls-2" cx="23.57" cy="17.02" r="9.58"/>
      <circle class="cls-2" cx="24.26" cy="16.62" r="7.99"/>
      <circle class="cls-2" cx="24.95" cy="16.22" r="6.39"/>
      <circle class="cls-2" cx="25.64" cy="15.82" r="4.79"/>
      <circle class="cls-2" cx="26.33" cy="15.42" r="3.19"/>
      <circle class="cls-2" cx="27.02" cy="15.03" r="1.6"/>
      <g>
        <path class="cls-1" d="M46.43,26.43l-.16.04c-.1.03-.09.05-.12.17l-.27,1.46s0,.03,0,.05c0,.04,0,.05.06.07l.16.05s.05.02.05.04c0,.03-.04.04-.07.04h-.77s-.07,0-.07-.04c0-.02.04-.04.06-.04l.14-.04c.1-.03.1-.06.12-.18l.26-1.38-.95,1.63s-.03.05-.07.05c-.04,0-.05-.04-.07-.09l-.35-1.55-.25,1.39s0,.03,0,.05c0,.05.04.06.08.08l.15.05s.05.02.05.04c0,.03-.04.04-.07.04h-.57s-.06-.01-.06-.04c0-.02.03-.04.05-.04l.14-.05c.08-.03.08-.06.11-.17l.27-1.45s0-.03,0-.05c0-.04-.04-.05-.08-.07l-.15-.05s-.04-.02-.04-.04c0-.03.03-.04.07-.04h.57l.35,1.5.89-1.5h.55s.07,0,.07.04c0,.02-.04.04-.06.04Z"/>
        <path class="cls-1" d="M47.01,27.75c-.01.08-.02.14-.02.23,0,.15.07.24.2.24.09,0,.25-.1.35-.22.05-.06.08-.1.1-.1.02,0,.03.01.03.03,0,.08-.29.45-.62.45-.22,0-.38-.19-.38-.45,0-.54.39-.94.79-.94.21,0,.34.11.34.27,0,.23-.28.45-.79.49ZM47.45,27.08c-.15,0-.31.21-.43.59.34-.04.53-.26.53-.47,0-.08-.03-.13-.1-.13Z"/>
        <path class="cls-1" d="M49.37,27.69c-.04.16-.06.32-.06.46,0,0,0,.02,0,.02.2-.12.28-.28.33-.28.02,0,.03.02.03.04,0,.06-.29.44-.5.44-.1,0-.14-.08-.14-.22,0-.12.02-.24.04-.36-.15.38-.35.58-.56.58-.18,0-.32-.17-.32-.44,0-.5.31-.95.74-.95.11,0,.2.02.28.06l.1-.49s0-.03,0-.05c0-.05-.02-.06-.08-.07l-.17-.03s-.06-.01-.06-.04c0-.03.04-.04.07-.04l.6-.11-.32,1.46ZM49,27.09c-.14,0-.26.1-.35.31-.08.19-.13.41-.13.54,0,.15.05.24.14.24.17,0,.39-.32.54-.99-.05-.07-.12-.1-.19-.1Z"/>
        <path class="cls-1" d="M50.32,28.38c-.08,0-.14-.08-.14-.23,0-.29.16-.66.19-.95-.22.14-.3.26-.34.26-.02,0-.03-.01-.03-.03,0-.08.33-.44.54-.44.09,0,.14.05.14.14,0,.27-.19.66-.2,1.04.2-.13.28-.28.32-.28.02,0,.04.01.04.03,0,.07-.3.45-.5.45ZM50.63,26.68c-.09,0-.17-.08-.17-.2s.1-.22.19-.22c.1,0,.18.08.18.2,0,.13-.09.23-.2.23Z"/>
        <path class="cls-1" d="M52.3,27.31c-.07.04-.14.08-.18.08-.02,0-.04-.02-.04-.04,0-.02.02-.07.02-.14s-.04-.12-.11-.12c-.2,0-.44.47-.44.86,0,.18.06.28.18.28.1,0,.23-.08.35-.21.04-.04.08-.1.1-.1.02,0,.03.02.03.04,0,.06-.28.44-.6.44-.23,0-.38-.18-.38-.45,0-.51.34-.93.8-.93.23,0,.32.07.32.22,0,.04,0,.06-.06.09Z"/>
        <path class="cls-1" d="M53.7,28.38c-.09,0-.14-.09-.14-.23,0-.09.02-.2.04-.33-.14.37-.33.56-.54.56-.18,0-.33-.17-.33-.43,0-.51.34-.95.75-.95.14,0,.29.03.42.09.05-.08.1-.14.13-.14.02,0,.04.02.04.04s-.02.08-.04.14c-.13.48-.19.82-.19,1,0,.02,0,.03,0,.05.23-.15.27-.28.32-.28.02,0,.03.02.03.03,0,.06-.28.45-.49.45ZM53.53,27.08c-.13,0-.24.1-.34.29-.1.21-.16.44-.16.58s.05.23.14.23c.17,0,.42-.35.55-1.01-.05-.06-.12-.09-.19-.09Z"/>
        <path class="cls-1" d="M54.98,27.81c-.03.14-.05.26-.05.34v.04c.21-.14.28-.28.33-.28.02,0,.03.02.03.03,0,.06-.3.44-.51.44-.08,0-.14-.08-.14-.22,0-.06,0-.15.03-.24l.27-1.36s0-.03,0-.05c0-.05,0-.06-.07-.07l-.16-.03s-.06-.01-.06-.04.04-.04.07-.04l.59-.11-.33,1.58Z"/>
        <path class="cls-1" d="M58.35,26.87s-.04-.02-.05-.04c-.13-.29-.26-.42-.47-.42-.42,0-.76.6-.76,1.22,0,.43.17.66.46.66.21,0,.44-.2.51-.33.05-.09.1-.14.13-.14.03,0,.04.02.04.05,0,.11-.17.51-.25.51,0,0-.01,0-.02,0-.02-.01-.04-.03-.08-.03-.07,0-.18.05-.37.05-.48,0-.79-.35-.79-.8,0-.74.5-1.27,1.07-1.27.2,0,.32.05.4.05.04,0,.07-.03.09-.03.04,0,.05.03.06.06.05.13.08.29.08.42,0,.03-.02.06-.04.06Z"/>
        <path class="cls-1" d="M59.19,28.38c-.27,0-.47-.22-.47-.52,0-.47.32-.86.75-.86.25,0,.47.19.47.55,0,.43-.34.84-.74.84ZM59.48,27.08c-.13,0-.23.11-.32.31-.1.23-.15.47-.15.64,0,.17.07.26.17.26.11,0,.2-.1.29-.29.12-.25.17-.49.17-.68,0-.16-.08-.25-.16-.25Z"/>
        <path class="cls-1" d="M61.44,27.38s-.02,0-.03-.02c-.05-.05-.08-.09-.14-.09-.12,0-.31.22-.43.77l-.06.26-.27.07-.03-.03c.15-.55.22-.97.23-1.14-.21.12-.27.26-.32.26-.02,0-.03-.02-.03-.03,0-.09.29-.43.5-.43.08,0,.13.06.13.17,0,.05-.02.18-.05.35.16-.37.35-.52.48-.52.06,0,.08.07.08.2,0,.12-.01.19-.06.19Z"/>
        <path class="cls-1" d="M63.14,28.06c-.14.22-.34.33-.58.33-.09,0-.18-.03-.26-.06l-.11.5s0,.04,0,.06c0,.03.04.04.08.05l.13.04s.05.02.05.04c0,.03-.04.04-.08.04h-.67s-.07,0-.07-.04c0-.02.04-.04.06-.04l.12-.04c.09-.03.08-.04.11-.17l.23-1.14c.03-.13.05-.27.06-.43-.23.14-.27.27-.32.27-.02,0-.03-.01-.03-.03,0-.08.29-.44.52-.44.09,0,.12.06.12.17,0,.11-.03.25-.06.42.16-.39.38-.6.58-.6.18,0,.3.16.3.43,0,.21-.07.46-.19.63ZM62.89,27.2c-.16,0-.43.33-.56.99.05.07.11.1.2.1.15,0,.27-.12.37-.36.08-.18.11-.38.11-.51,0-.14-.04-.22-.12-.22Z"/>
        <path class="cls-1" d="M64.27,28.38c-.27,0-.47-.22-.47-.52,0-.47.32-.86.75-.86.25,0,.47.19.47.55,0,.43-.34.84-.74.84ZM64.56,27.08c-.13,0-.23.11-.32.31-.1.23-.15.47-.15.64,0,.17.07.26.17.26.11,0,.2-.1.29-.29.12-.25.17-.49.17-.68,0-.16-.08-.25-.16-.25Z"/>
        <path class="cls-1" d="M66.53,27.38s-.02,0-.03-.02c-.05-.05-.08-.09-.14-.09-.12,0-.31.22-.43.77l-.06.26-.27.07-.03-.03c.15-.55.22-.97.23-1.14-.21.12-.27.26-.32.26-.02,0-.03-.02-.03-.03,0-.09.29-.43.5-.43.08,0,.13.06.13.17,0,.05-.02.18-.05.35.16-.37.35-.52.48-.52.06,0,.08.07.08.2,0,.12-.01.19-.06.19Z"/>
        <path class="cls-1" d="M67.89,28.38c-.09,0-.14-.09-.14-.23,0-.09.02-.2.04-.33-.14.37-.33.56-.54.56-.18,0-.33-.17-.33-.43,0-.51.34-.95.75-.95.14,0,.29.03.42.09.05-.08.1-.14.13-.14.02,0,.04.02.04.04s-.02.08-.04.14c-.13.48-.19.82-.19,1,0,.02,0,.03,0,.05.23-.15.27-.28.32-.28.02,0,.03.02.03.03,0,.06-.28.45-.49.45ZM67.73,27.08c-.13,0-.24.1-.34.29-.1.21-.16.44-.16.58s.05.23.14.23c.17,0,.42-.35.55-1.01-.05-.06-.12-.09-.19-.09Z"/>
        <path class="cls-1" d="M69.64,27.25h-.36l-.11.57c-.03.14-.05.26-.05.36.2-.13.29-.28.33-.28.02,0,.04.01.04.04,0,.04-.29.44-.51.44-.08,0-.14-.08-.14-.24,0-.05.01-.15.03-.25l.13-.64h-.15s-.07,0-.07-.04c0-.02.03-.03.04-.04.17-.04.31-.07.43-.32.04-.07.05-.12.09-.12.02,0,.04,0,.04.03,0,.01,0,.02,0,.03l-.06.32h.36l.03.04-.05.09Z"/>
        <path class="cls-1" d="M70.3,28.38c-.08,0-.14-.08-.14-.23,0-.29.16-.66.19-.95-.22.14-.3.26-.34.26-.02,0-.03-.01-.03-.03,0-.08.33-.44.54-.44.09,0,.14.05.14.14,0,.27-.19.66-.2,1.04.2-.13.28-.28.32-.28.02,0,.04.01.04.03,0,.07-.3.45-.5.45ZM70.62,26.68c-.09,0-.17-.08-.17-.2s.1-.22.19-.22c.1,0,.18.08.18.2,0,.13-.09.23-.2.23Z"/>
        <path class="cls-1" d="M71.71,28.38c-.27,0-.47-.22-.47-.52,0-.47.32-.86.75-.86.25,0,.47.19.47.55,0,.43-.34.84-.74.84ZM72,27.08c-.13,0-.23.11-.32.31-.1.23-.15.47-.15.64,0,.17.07.26.17.26.11,0,.2-.1.29-.29.12-.25.17-.49.17-.68,0-.16-.08-.25-.16-.25Z"/>
        <path class="cls-1" d="M74.01,28.38c-.08,0-.15-.08-.15-.24,0-.25.15-.58.15-.8,0-.09-.04-.14-.12-.14-.11,0-.25.14-.38.43-.09.21-.12.38-.15.51l-.04.17-.27.07-.02-.03c.15-.52.2-.98.21-1.14-.22.13-.28.27-.33.27-.02,0-.03-.02-.03-.04,0-.07.29-.44.51-.44.09,0,.13.06.13.17,0,.12-.02.26-.04.39.12-.35.34-.56.57-.56.14,0,.25.12.25.27,0,.29-.15.6-.16.92.21-.12.3-.27.35-.27.02,0,.03,0,.03.03,0,.07-.31.44-.52.44Z"/>
      </g>
    </g>
  </g>
</svg>